<?xml version="1.0" encoding="UTF-8"?>
<svg width="48px" height="39px" viewBox="0 0 48 39" version="1.1" xmlns="http://www.w3.org/2000/svg" xmlns:xlink="http://www.w3.org/1999/xlink">
    <!-- Generator: Sketch 49.1 (51147) - http://www.bohemiancoding.com/sketch -->
    <title>Logo</title>
    <desc>Created with Sketch.</desc>
    <defs></defs>
    <g id="Components" stroke="none" stroke-width="1" fill="none" fill-rule="evenodd">
        <g id="Logo" transform="translate(-19.000000, -13.000000)">
            <rect id="Rectangle-Copy" x="0" y="0" width="85" height="64"></rect>
            <g id="logo/madeforgoods" transform="translate(20.000000, 14.000000)">
                <g id="Group-4">
                    <path d="M23.6951304,36.7199738 L23.6938349,36.7199738 C17.6304744,36.7199738 12.2865088,35.4864357 7.81131012,33.0528591 C4.69976187,31.3615783 2.11483713,29.1672851 0.0836120094,26.4979174 M23.6951304,33.0655346 L23.6938349,33.0655346 C18.2488198,33.0655346 13.4943098,31.9812576 9.56192847,29.8433577 C7.00135926,28.4516338 4.86118202,26.6598541 3.16264304,24.4925934 M23.6951304,29.4103194 L23.6938349,29.4103194 C15.915353,29.4103194 9.85600852,26.9528145 6.18324671,22.4024208" id="Stroke-1" stroke="#FFFFFF" stroke-width="1.701248" stroke-linecap="round"></path>
                    <path d="M45.2176182,13.2017035 C44.5857996,8.47087717 39.5698563,7.47093135 36.5521028,8.83057828 C35.6339771,5.85117693 32.534477,-0.284695477 26.2328728,0.100744767 C23.2738057,0.28143605 21.3721313,2.04191497 20.2723755,4.00985903 C20.0794746,4.32894665 19.5598468,5.28530409 19.5598468,5.28530409 C17.5695597,4.29557632 14.085035,3.66968862 11.1950184,4.99945746 C9.47976743,5.91830562 8.132829,7.10217627 7.41641374,8.39857479 C5.7353641,11.1613277 6.11041332,14.5046984 7.17519037,16.918227 C10.0596363,23.4571302 17.506339,26.5455671 28.5266972,25.1706578 C36.712616,24.1487238 42.2369162,21.0399801 44.2551862,17.3944655 C45.071226,16.0494343 45.4077986,14.6253749 45.2176182,13.2017035" id="Fill-3" fill="#59C1EE"></path>
                    <path d="M45.2176182,13.2017035 C44.5857996,8.47087717 39.5698563,7.47093135 36.5521028,8.83057828 C35.6339771,5.85117693 32.534477,-0.284695477 26.2328728,0.100744767 C23.2738057,0.28143605 21.3721313,2.04191497 20.2723755,4.00985903 C20.0794746,4.32894665 19.5598468,5.28530409 19.5598468,5.28530409 C17.5695597,4.29557632 14.085035,3.66968862 11.1950184,4.99945746 C9.47976743,5.91830562 8.132829,7.10217627 7.41641374,8.39857479 C5.7353641,11.1613277 6.11041332,14.5046984 7.17519037,16.918227 C10.0596363,23.4571302 17.506339,26.5455671 28.5266972,25.1706578 C36.712616,24.1487238 42.2369162,21.0399801 44.2551862,17.3944655 C45.071226,16.0494343 45.4077986,14.6253749 45.2176182,13.2017035 Z" id="Stroke-5" stroke="#FFFFFF" stroke-width="1.701248" stroke-linecap="round"></path>
                </g>
            </g>
        </g>
    </g>
</svg>