<?xml version="1.0" encoding="UTF-8"?>
<svg width="158px" height="23px" viewBox="0 0 158 23" version="1.1" xmlns="http://www.w3.org/2000/svg" xmlns:xlink="http://www.w3.org/1999/xlink">
    <!-- Generator: Sketch 49.1 (51147) - http://www.bohemiancoding.com/sketch -->
    <title>Logo Copy</title>
    <desc>Created with Sketch.</desc>
    <defs></defs>
    <g id="Components" stroke="none" stroke-width="1" fill="none" fill-rule="evenodd">
        <g id="Logo-Copy" transform="translate(0.000000, -21.000000)">
            <rect id="Rectangle-Copy" x="0" y="0" width="171" height="64"></rect>
            <g id="logo/madeforgoods" transform="translate(0.000000, 21.000000)" fill="#FFFFFF">
                <g id="Group-5">
                    <path d="M0.146238495,5.68204263 L3.10130988,5.68204263 L3.10130988,7.05340471 C3.60724024,6.49006591 4.16870188,6.06941106 4.78627125,5.79221878 C5.40364848,5.51424787 6.07694129,5.37545707 6.80672613,5.37545707 C7.54304407,5.37545707 8.20769014,5.55785115 8.80047219,5.92322327 C9.39325425,6.28898471 9.86882494,6.82273557 10.2302587,7.52486517 C10.6994884,6.82273557 11.2757456,6.28898471 11.9578773,5.92322327 C12.6405854,5.55785115 13.3868952,5.37545707 14.1954614,5.37545707 C15.0338109,5.37545707 15.7697445,5.57283978 16.405376,5.96741053 C17.0421603,6.36217593 17.4983239,6.87723967 17.7769411,7.51415901 C18.0544053,8.15029971 18.1939061,9.18393102 18.1939061,10.6175835 L18.1939061,17.6147419 L15.2165453,17.6147419 L15.2165453,11.5601151 C15.2165453,10.2082188 15.0501436,9.29216059 14.7181088,8.81369246 C14.386074,8.33405639 13.8884061,8.09462766 13.2247208,8.09462766 C12.7185982,8.09462766 12.2657012,8.24159408 11.8650689,8.53358032 C11.4657817,8.82595588 11.1673731,9.23103814 10.9727254,9.74532325 C10.7776934,10.260971 10.6808499,11.08846 10.6808499,12.2297369 L10.6808499,17.6147419 L7.70272053,17.6147419 L7.70272053,11.8345822 C7.70272053,10.7684431 7.62470772,9.99351156 7.46964285,9.51543274 C7.31361724,9.03696461 7.07996311,8.68054673 6.76983338,8.44637376 C6.45855074,8.21161682 6.08193718,8.09462766 5.64095345,8.09462766 C5.14828143,8.09462766 4.7026861,8.24295668 4.30109307,8.53922539 C3.89834714,8.83607807 3.59897779,9.25050389 3.39971848,9.78406009 C3.20045916,10.3178109 3.10130988,11.15951 3.10130988,12.3074052 L3.10130988,17.6147419 L0.146238495,17.6147419 L0.146238495,5.68204263 Z" id="Fill-7"></path>
                    <path d="M29.70166,5.68204263 L32.6576921,5.68204263 L32.6576921,17.6147419 L29.70166,17.6147419 L29.70166,16.3549186 C29.1257871,16.9106657 28.5468399,17.3114655 27.9665475,17.5551767 C27.3864474,17.8002505 26.7567726,17.9226901 26.0790603,17.9226901 C24.5581948,17.9226901 23.2423532,17.3250916 22.1324961,16.1293106 C21.0218704,14.9329456 20.467134,13.4467356 20.467134,11.6708752 C20.467134,9.828442 21.0030397,8.31809447 22.0775412,7.14080592 C23.1531957,5.96371203 24.4577005,5.37545707 25.9918243,5.37545707 C26.6995119,5.37545707 27.3624286,5.51054938 27.9817274,5.78092864 C28.6027554,6.05111325 29.1753618,6.45755811 29.70166,6.99812198 L29.70166,5.68204263 Z M26.5949824,8.13862026 C25.6818867,8.13862026 24.9228951,8.46583951 24.3176233,9.12027802 C23.7136966,9.77452187 23.4122136,10.613301 23.4122136,11.6377834 C23.4122136,12.6690789 23.7186925,13.516423 24.3335717,14.181373 C24.9492196,14.8471016 25.7057133,15.1797713 26.6053585,15.1797713 C27.5332498,15.1797713 28.3030018,14.852552 28.9142302,14.1983082 C29.5256508,13.543675 29.8319376,12.6869874 29.8319376,11.6264933 C29.8319376,10.5883849 29.5256508,9.74824311 28.9142302,9.10353748 C28.3030018,8.46097308 27.5297911,8.13862026 26.5949824,8.13862026 Z" id="Fill-9"></path>
                    <path d="M44.339015,1.07557027 L47.2952392,1.07557027 L47.2952392,17.6148392 L44.339015,17.6148392 L44.339015,16.3548213 C43.7627578,16.9107631 43.1841948,17.3098109 42.6035182,17.5550794 C42.0230337,17.8003478 41.3945118,17.9227874 40.7162231,17.9227874 C39.1949733,17.9227874 37.8800924,17.3251889 36.7694667,16.1282399 C35.6590332,14.9328482 35.1039125,13.4468329 35.1039125,11.6696099 C35.1039125,9.82853933 35.6405868,8.31877577 36.7154726,7.14109791 C37.7901663,5.96361471 39.0948633,5.37477577 40.6289871,5.37477577 C41.3366747,5.37477577 41.9993993,5.51064671 42.6202352,5.78141529 C43.2395339,6.05140524 43.813101,6.45746078 44.339015,6.99841396 L44.339015,1.07557027 Z M41.2323374,8.13891225 C40.3190495,8.13891225 39.5606344,8.46574218 38.9551704,9.12018069 C38.3510515,9.77442454 38.0495685,10.6143716 38.0495685,11.6378808 C38.0495685,12.6678136 38.3558553,13.5163256 38.971311,14.1812756 C39.5865746,14.8470043 40.3434525,15.1796739 41.2430978,15.1796739 C42.1706047,15.1796739 42.9403567,14.8524547 43.5508166,14.1984055 C44.1626215,13.5437723 44.4694847,12.68689 44.4694847,11.626396 C44.4694847,10.5882875 44.1626215,9.74658852 43.5508166,9.10480275 C42.9403567,8.46029177 42.1665696,8.13891225 41.2323374,8.13891225 Z" id="Fill-11"></path>
                    <path d="M62.0833933,12.5152994 L52.5888887,12.5152994 C52.7255072,13.3634222 53.0917446,14.0373264 53.6870246,14.5393481 C54.2836497,15.0396179 55.0430256,15.2891688 55.9664974,15.2891688 C57.07059,15.2891688 58.0196177,14.8982965 58.8133885,14.1167467 L61.3036495,15.3006536 C60.6833901,16.1935475 59.9397704,16.8536311 59.0735593,17.280515 C58.2079245,17.7091508 57.1791546,17.9226901 55.9884025,17.9226901 C54.1401138,17.9226901 52.6355811,17.3319046 51.4730749,16.1503336 C50.3117217,14.9705145 49.7314294,13.4913121 49.7314294,11.7138945 C49.7314294,9.89384692 50.309608,8.38194213 51.4678869,7.17915345 C52.6267422,5.97655943 54.0797788,5.37467844 55.8256516,5.37467844 C57.6804734,5.37467844 59.1898099,5.97655943 60.3513553,7.17915345 C61.513285,8.38194213 62.0941537,9.969958 62.0941537,11.9439797 L62.0833933,12.5152994 Z M59.1277455,10.1570239 C58.9327135,9.49148987 58.5474532,8.950926 57.9727332,8.53358032 C57.3978211,8.11701328 56.7308692,7.90834044 55.971109,7.90834044 C55.1473629,7.90834044 54.4241112,8.14251341 53.8032752,8.60988606 C53.4126348,8.90245628 53.0508167,9.41829865 52.7183976,10.1570239 L59.1277455,10.1570239 Z" id="Fill-13"></path>
                    <path d="M70.1923444,1.48150902 L69.9867441,2.94027231 C69.432392,2.41411309 68.9130112,2.1507415 68.4259115,2.1507415 C68.1153975,2.1507415 67.8498465,2.29907051 67.6286821,2.59670182 C67.4071334,2.89335985 67.2332379,3.49485152 67.1085327,4.40117683 L66.9380958,5.68202317 L69.4127928,5.68202317 L69.2500419,7.02029347 L66.7617023,7.02029347 L65.3547817,17.6147225 L63.8692718,17.6147225 L65.2838784,7.02029347 L63.8692718,7.02029347 L64.0325991,5.68202317 L65.4627698,5.68202317 L65.6032313,4.62951008 C65.7782798,3.39343496 65.9656258,2.56769786 66.1637322,2.1507415 C66.36107,1.73339582 66.6533299,1.3991689 67.0416645,1.14747675 C67.4299992,0.894616662 67.8573403,0.768673261 68.3256093,0.768673261 C68.9410651,0.768673261 69.5630539,1.00673938 70.1923444,1.48150902" id="Fill-15"></path>
                    <path d="M77.3048836,5.37475631 C78.3084819,5.37475631 79.2279185,5.61807818 80.0658837,6.10433261 C80.9028881,6.59117101 81.5561974,7.26663253 82.0256193,8.13324771 C82.4940804,8.99966824 82.7290796,9.98113134 82.7290796,11.0789996 C82.7290796,12.3283115 82.4299024,13.4896381 81.8305872,14.5602543 C81.2308878,15.6314545 80.4265488,16.4601115 79.415841,17.0448626 C78.4062861,17.6300031 77.2620342,17.9227679 75.9842382,17.9227679 C74.4038063,17.9227679 73.1027602,17.3985553 72.0814841,16.3491567 C71.0596316,15.2991742 70.5492818,13.9626558 70.5492818,12.3390176 C70.5492818,11.0663469 70.8490355,9.89392478 71.4481585,8.81941539 C72.0474736,7.74373806 72.867761,6.90126041 73.9115186,6.29081449 C74.953739,5.68036858 76.0851168,5.37475631 77.3048836,5.37475631 M77.2677987,6.83371426 C76.3283784,6.83371426 75.4444895,7.07158572 74.6182455,7.54635536 C73.7910407,8.02151431 73.1540642,8.67361693 72.7098139,9.50402581 C72.2661401,10.3346294 72.0436306,11.2497143 72.0436306,12.2518111 C72.0436306,13.5091038 72.426393,14.5310557 73.1924941,15.316888 C73.9587874,16.1031097 74.9479745,16.4974857 76.1621689,16.4974857 C77.1088908,16.4974857 77.9676082,16.2681792 78.7362073,15.8105394 C79.5063436,15.3546516 80.1185327,14.694568 80.5737356,13.830678 C81.029707,12.96854 81.2562516,12.0439168 81.2562516,11.0568087 C81.2562516,10.2306823 81.0871598,9.49701814 80.747439,8.85756826 C80.4071417,8.21811838 79.9267673,7.7201845 79.3055471,7.36532388 C78.6837504,7.01124189 78.0045009,6.83371426 77.2677987,6.83371426" id="Fill-17"></path>
                    <path d="M85.891961,5.68204263 L87.4103285,5.68204263 L87.2058811,7.18421455 C87.6103564,6.61406273 88.098609,6.16965967 88.6687173,5.85178397 C89.2403629,5.53351896 89.8246904,5.37545707 90.4247741,5.37545707 C90.8515388,5.37545707 91.2954048,5.47784692 91.7581014,5.68204263 L91.04292,7.08591251 C90.6682279,6.93271706 90.3556002,6.85524337 90.1031154,6.85524337 C89.5770093,6.85524337 89.0564756,7.04191992 88.5415142,7.41507834 C88.025592,7.78804211 87.6082427,8.33133118 87.2877369,9.04397228 C86.9672311,9.75797599 86.695147,10.9294248 86.473214,12.5596814 L85.7845492,17.6147419 L84.2984629,17.6147419 L85.891961,5.68204263 Z" id="Fill-19"></path>
                    <path d="M101.328121,5.68204263 L104.273393,5.68204263 L104.273393,15.9035079 C104.273393,17.9226901 103.872184,19.4069535 103.072457,20.3570768 C101.996226,21.6437628 100.375635,22.2880791 98.2101066,22.2880791 C97.0562472,22.2880791 96.0845457,22.1413074 95.2978846,21.8485425 C94.511992,21.5561669 93.8481145,21.1261685 93.3062522,20.5604938 C92.7651584,19.9936512 92.364334,19.304369 92.1041632,18.4934259 L95.3632155,18.4934259 C95.6514402,18.8292101 96.0238264,19.0826541 96.4786449,19.254926 C96.9342321,19.4268086 97.4709064,19.5130418 98.0911658,19.5130418 C98.8849366,19.5130418 99.5240267,19.3880717 100.00786,19.1396888 C100.491309,18.8915004 100.832375,18.5701209 101.03125,18.1747715 C101.228972,17.7798115 101.328121,17.1008461 101.328121,16.1351503 C100.80874,16.6613095 100.263803,17.039529 99.6940793,17.2692249 C99.1239709,17.499894 98.4773869,17.6147419 97.7556723,17.6147419 C96.1754326,17.6147419 94.8396074,17.0379718 93.7508867,15.8811222 C92.6596682,14.726414 92.1166529,13.2637575 92.1166529,11.4949048 C92.1166529,9.60108204 92.6927179,8.08041767 93.8481145,6.93271706 C94.8949465,5.89421931 96.1435357,5.37545707 97.5933058,5.37545707 C98.2714023,5.37545707 98.912414,5.50120582 99.5146114,5.75367659 C100.11777,6.00575805 100.722081,6.42115715 101.328121,6.99812198 L101.328121,5.68204263 Z M98.2642928,8.17210135 C97.3335193,8.17210135 96.5653045,8.48803047 95.9588798,9.12027802 C95.3526473,9.75252558 95.0490506,10.5480908 95.0490506,11.5060003 C95.0490506,12.5001162 95.3601411,13.316315 95.9805927,13.9514825 C96.6008522,14.5876232 97.3800195,14.9051095 98.3194398,14.9051095 C99.2350335,14.9051095 99.9917193,14.5946308 100.587384,13.9736734 C101.182087,13.3525213 101.479727,12.5357385 101.479727,11.5281913 C101.479727,10.5340754 101.180166,9.7258575 100.581619,9.10353748 C99.9826882,8.4823854 99.2104383,8.17210135 98.2642928,8.17210135 Z" id="Fill-21"></path>
                    <path d="M112.793679,5.37475631 C113.904497,5.37475631 114.949791,5.65662036 115.927834,6.21956985 C116.9053,6.78251933 117.668711,7.54635536 118.217106,8.51166189 C118.766847,9.47638445 119.039699,10.5187754 119.039699,11.6378613 C119.039699,12.7635656 118.764925,13.817052 118.21211,14.7955952 C117.659295,15.7758904 116.907605,16.5414783 115.955503,17.0950843 C115.002248,17.6463543 113.95215,17.9227679 112.804631,17.9227679 C111.115827,17.9227679 109.673551,17.3140739 108.479724,16.0959073 C107.284745,14.8789086 106.687351,13.3997063 106.687351,11.6598576 C106.687351,9.79503877 107.361989,8.24108797 108.713186,6.9983945 C109.89606,5.91609881 111.256865,5.37475631 112.793679,5.37475631 M112.842101,8.19378619 C111.924585,8.19378619 111.159637,8.5171123 110.548601,9.16434848 C109.937372,9.81197398 109.632623,10.6396577 109.632623,11.6487621 C109.632623,12.6868706 109.934298,13.5274016 110.537072,14.17055 C111.141959,14.8152556 111.906139,15.1366352 112.831917,15.1366352 C113.757118,15.1366352 114.527062,14.8109732 115.141941,14.1608171 C115.756244,13.5091038 116.062531,12.6718819 116.062531,11.6487621 C116.062531,10.6244744 115.761048,9.79367617 115.157697,9.15344766 C114.553771,8.51419244 113.782289,8.19378619 112.842101,8.19378619" id="Fill-23"></path>
                    <path d="M126.98686,5.37475631 C128.098062,5.37475631 129.142204,5.65662036 130.120631,6.21956985 C131.098865,6.78251933 131.862277,7.54635536 132.410672,8.51166189 C132.95926,9.47638445 133.234034,10.5187754 133.234034,11.6378613 C133.234034,12.7635656 132.957338,13.817052 132.405676,14.7955952 C131.852477,15.7758904 131.100787,16.5414783 130.147916,17.0950843 C129.19543,17.6463543 128.144947,17.9227679 126.998197,17.9227679 C125.308624,17.9227679 123.867117,17.3140739 122.672521,16.0959073 C121.477926,14.8789086 120.880533,13.3997063 120.880533,11.6598576 C120.880533,9.79503877 121.555939,8.24108797 122.905983,6.9983945 C124.088857,5.91609881 125.450046,5.37475631 126.98686,5.37475631 M127.034898,8.19378619 C126.117383,8.19378619 125.353203,8.5171123 124.742167,9.16434848 C124.131323,9.81197398 123.82542,10.6396577 123.82542,11.6487621 C123.82542,12.6868706 124.128248,13.5274016 124.730638,14.17055 C125.334372,14.8152556 126.098936,15.1366352 127.024714,15.1366352 C127.950299,15.1366352 128.720243,14.8109732 129.335123,14.1608171 C129.949426,13.5091038 130.257249,12.6718819 130.257249,11.6487621 C130.257249,10.6244744 129.954229,9.79367617 129.351263,9.15344766 C128.747337,8.51419244 127.975471,8.19378619 127.034898,8.19378619" id="Fill-25"></path>
                    <path d="M144.341136,1.07557027 L147.297745,1.07557027 L147.297745,17.6148392 L144.341136,17.6148392 L144.341136,16.3548213 C143.764303,16.9107631 143.185932,17.3098109 142.605832,17.5550794 C142.025539,17.8003478 141.396633,17.9227874 140.718729,17.9227874 C139.198055,17.9227874 137.882022,17.3251889 136.772549,16.1282399 C135.661731,14.9328482 135.107379,13.4468329 135.107379,11.6696099 C135.107379,9.82853933 135.643285,8.31877577 136.718555,7.14109791 C137.792672,5.96361471 139.096792,5.37477577 140.632069,5.37477577 C141.338796,5.37477577 142.001905,5.51064671 142.621972,5.78141529 C143.241847,6.05140524 143.815414,6.45746078 144.341136,6.99841396 L144.341136,1.07557027 Z M141.234459,8.13891225 C140.320979,8.13891225 139.562179,8.46574218 138.9571,9.12018069 C138.353749,9.77442454 138.051305,10.6143716 138.051305,11.6378808 C138.051305,12.6678136 138.358553,13.5163256 138.973624,14.1812756 C139.588888,14.8470043 140.344997,15.1796739 141.245411,15.1796739 C142.172726,15.1796739 142.942862,14.8524547 143.554091,14.1984055 C144.165896,13.5437723 144.470645,12.68689 144.470645,11.626396 C144.470645,10.5882875 144.165896,9.74658852 143.554091,9.10480275 C142.942862,8.46029177 142.169267,8.13891225 141.234459,8.13891225 Z" id="Fill-27"></path>
                    <path d="M157.494768,7.34899212 L155.665887,9.20193684 C154.922844,8.45756657 154.247821,8.08401883 153.641205,8.08401883 C153.308785,8.08401883 153.049383,8.15565279 152.862229,8.29794742 C152.67373,8.44024205 152.579961,8.61776969 152.579961,8.83014102 C152.579961,8.99131743 152.639912,9.13828384 152.759045,9.27415477 C152.877601,9.40827379 153.171398,9.5941717 153.641205,9.82853933 L154.723584,10.3763055 C155.864185,10.9458734 156.647388,11.5280939 157.073,12.1202421 C157.498611,12.7121955 157.71209,13.4079014 157.71209,14.2038559 C157.71209,15.2645446 157.328174,16.1488736 156.558422,16.8593735 C155.790208,17.5677321 154.760477,17.9227874 153.467885,17.9227874 C151.750259,17.9227874 150.378886,17.2418755 149.353959,15.8812196 L151.173041,13.8752741 C151.519679,14.2842495 151.925499,14.6155565 152.391078,14.8678326 C152.856081,15.1189408 153.270548,15.2462468 153.630828,15.2462468 C154.019932,15.2462468 154.333712,15.1504753 154.572362,14.9608789 C154.810628,14.7708932 154.9288,14.5519035 154.9288,14.3021579 C154.9288,13.841793 154.500306,13.3927181 153.641205,12.9533761 L152.645677,12.4486293 C150.739551,11.476899 149.786296,10.2597057 149.786296,8.7972439 C149.786296,7.85412833 150.146192,7.04766231 150.864064,6.37842983 C151.58232,5.70958667 152.500796,5.37535975 153.619492,5.37535975 C154.384632,5.37535975 155.104233,5.54471177 155.779639,5.88477842 C156.454085,6.22465041 157.025731,6.71304607 157.494768,7.34899212" id="Fill-29"></path>
                </g>
            </g>
        </g>
    </g>
</svg>