<!-- Generated by IcoMoon.io -->
<svg version="1.1" xmlns="http://www.w3.org/2000/svg" width="1024" height="1024" viewBox="0 0 1024 1024">
<title></title>
<g id="icomoon-ignore">
</g>
<path fill="#000" d="M512 0c-282.624 0-512 229.376-512 512s229.376 512 512 512c282.624 0 512-229.376 512-512s-229.376-512-512-512zM512 921.6c-226.304 0-409.6-183.296-409.6-409.6 0-94.72 32.256-181.76 86.528-250.88l573.952 573.952c-69.12 54.272-156.16 86.528-250.88 86.528zM835.072 762.88l-573.952-573.952c69.12-54.272 156.16-86.528 250.88-86.528 226.304 0 409.6 183.296 409.6 409.6 0 94.72-32.256 181.76-86.528 250.88z"></path>
</svg>
