<?xml version="1.0" standalone="no"?><!DOCTYPE svg PUBLIC "-//W3C//DTD SVG 1.1//EN" "http://www.w3.org/Graphics/SVG/1.1/DTD/svg11.dtd"><svg t="1544280377950" class="icon" style="" viewBox="0 0 1024 1024" version="1.1" xmlns="http://www.w3.org/2000/svg" p-id="807" xmlns:xlink="http://www.w3.org/1999/xlink" width="200" height="200"><defs><style type="text/css"></style></defs><path d="M862.72 458.24c-5.12-23.04-7.68-33.28-20.48-61.44C788.48 268.8 660.48 179.2 512 179.2 314.88 179.2 153.6 340.48 153.6 537.6s161.28 358.4 358.4 358.4 358.4-161.28 358.4-358.4c0-28.16-2.56-53.76-7.68-79.36z" fill="#2589FF" p-id="808"></path><path d="M197.12 529.92c0-38.4 7.68-76.8 20.48-112.64 15.36 12.8 38.4 12.8 38.4 33.28 0 61.44 2.56 128 61.44 130.56 2.56 0 33.28 10.24 48.64 48.64 5.12 12.8 25.6 0 48.64 0 10.24 0 0 17.92 0 56.32 0 38.4 87.04 97.28 87.04 97.28 0 25.6 0 46.08 2.56 61.44-168.96-2.56-307.2-143.36-307.2-314.88zM586.24 844.8c12.8-48.64 17.92-76.8 46.08-99.84 38.4-30.72 5.12-64-25.6-61.44-23.04 2.56-7.68-25.6-28.16-28.16-20.48-2.56-48.64-38.4-76.8-51.2-15.36-7.68-30.72-25.6-56.32-25.6-20.48 0-53.76 17.92-53.76 2.56 0-43.52-5.12-74.24-5.12-87.04 0-10.24-7.68-2.56 23.04-2.56 15.36 0 7.68-28.16 23.04-30.72 15.36 0 51.2 12.8 61.44 7.68 7.68-5.12 64 133.12 64 23.04 0-12.8-7.68-35.84 0-48.64 28.16-48.64 56.32-89.6 53.76-94.72-2.56-2.56-30.72-5.12-51.2 0-7.68 2.56 2.56 12.8-7.68 15.36-40.96 7.68-76.8-10.24-64-28.16 12.8-17.92 61.44-7.68 64-43.52 2.56-20.48 5.12-46.08 5.12-64 115.2 15.36 209.92 92.16 253.44 194.56-110.08 76.8-81.92 133.12-46.08 163.84 17.92 15.36 35.84 40.96 48.64 58.88-38.4 99.84-122.88 174.08-227.84 199.68z" fill="#E8F2FF" p-id="809"></path></svg>